<ttFont>
          <CharString index="0">
            rmoveto
            -71 callsubr
            16 -30 -16 5 -21 hhcurveto
            -25 -31 -12 -18 -9 hvcurveto
            -91 callsubr
            26 21 13 19 13 hvcurveto
            endchar
          </CharString>
          <CharString index="1">
            -5 callsubr
            116 -1 -50 125 -133 -84 callsubr
            -196 -234 rmoveto
            -96 8 -40 92 102 vvcurveto
            8 vlineto
            109 -62 callsubr
            -96 -9 vhcurveto
            -11 -1 rlineto
            return
          </CharString>
          <CharString index="2">
            37 vstem
            497 73 callsubr
            -78 callsubr
            -124 137 80 callsubr
            126 218 vhcurveto
            -47 callsubr
            -140 -52 156 153 207 75 112 122 109 68 -112 -207 vhcurveto
            return
          </CharString>
          <CharString index="3">
            hstem
            41 37 295 -106 callsubr
            return
          </CharString>
          <CharString index="4">
            hstem
            49 37 374 -105 callsubr
            return
          </CharString>
          <CharString index="5">
            rmoveto
            39 -28 -48 17 -40 hhcurveto
            -137 -105 -101 -40 callsubr
            284 -330 37 vlineto
            -37 94 callsubr
            -284 90 hlineto
            105 82 105 121 25 34 -10 -23 22 vhcurveto
            return
          </CharString>
          <CharString index="6">
            37 vstem
            428 648 -102 callsubr
            return
          </CharString>
          <CharString index="7">
            37 vstem
            393 -82 callsubr
            -16 callsubr
            176 -20 callsubr
            vhcurveto
            -39 302 -70 callsubr
            return
          </CharString>
          <CharString index="8">
            hstem
            70 37 284 -101 callsubr
            return
          </CharString>
          <CharString index="9">
            hstem
            40 37 277 -100 callsubr
            return
          </CharString>
          <CharString index="10">
            374 500 rmoveto
            -390 vlineto
            -41 -36 -43 -42 -56 hhcurveto
            -81 -59 100 109 hvcurveto
            65 1 145 54 vvcurveto
            -37 hlineto
            -53 -1 -149 -63 vvcurveto
            -196 117 -49 54 58 46 30 40 37 vhcurveto
            return
          </CharString>
          <CharString index="11">
            37 vstem
            249 -2 rmoveto
            120 60 14 callsubr
            -457 vlineto
            -145 -68 -63 -75 -70 -71 63 145 vhcurveto
            457 -37 -458 -39 callsubr
            vhcurveto
            return
          </CharString>
          <CharString index="12">
            81 56 43 -43 -41 36 vhcurveto
            -353 -69 callsubr
            hvcurveto
            return
          </CharString>
          <CharString index="13">
            -81 callsubr
            -235 172 -20 callsubr
            hvcurveto
            return
          </CharString>
          <CharString index="14">
            rmoveto
            75 59 58 77 -56 callsubr
            hvcurveto
            -83 callsubr
            return
          </CharString>
          <CharString index="15">
            -20 hstem
            71 37 284 -96 callsubr
            return
          </CharString>
          <CharString index="16">
            -36 vlineto
            21 16 21 11 29 hhcurveto
            22 15 -6 -11 21 hvcurveto
            -20 38 16 -6 22 hhcurveto
            return
          </CharString>
          <CharString index="17">
            -4 callsubr
            hintmask 10111100
            -14 callsubr
            hintmask 11011100
            -94 callsubr
            hintmask 10111100
            -30 callsubr
            hintmask 11011100
            -87 callsubr
            return
          </CharString>
          <CharString index="18">
            -75 callsubr
            -106 -136 rlineto
            29 hlineto
            77 81 rlineto
            endchar
          </CharString>
          <CharString index="19">
            37 vstem
            370 500 rmoveto
            -459 -69 callsubr
            9 0 214 1 9 hvcurveto
            -37 hlineto
            -1 -10 0 -210 -11 vvcurveto
            0 callsubr
            vhcurveto
            -16 vlineto
            -66 callsubr
            vlineto
            return
          </CharString>
          <CharString index="20">
            136 59 74 -95 callsubr
            return
          </CharString>
          <CharString index="21">
            rmoveto
            -52 callsubr
            132 hmoveto
            -26 callsubr
          </CharString>
          <CharString index="22">
            51 callsubr
            hintmask 10111100
            -97 callsubr
            hintmask 01111100
            49 callsubr
            return
          </CharString>
          <CharString index="23">
            -76 callsubr
            65 119 33 238 hvcurveto
            return
          </CharString>
          <CharString index="24">
            -1 96 callsubr
            57 41 -39 -57 -51 -36 -47 -60 -59 -39 49 49 57 43 39 53 hvcurveto
            return
          </CharString>
          <CharString index="25">
            36 rmoveto
            -203 -113 48 180 hvcurveto
            313 hlineto
            -51 callsubr
            return
          </CharString>
          <CharString index="26">
            40 -37 -46 31 -58 7 callsubr
            -50 -196 return
          </CharString>
          <CharString index="27">
            rmoveto
            -37 15 -106 -136 rlineto
            29 hlineto
            endchar
          </CharString>
          <CharString index="28">
            458 -37 -277 vlineto
            -92 -20 -61 -39 -62 hhcurveto
            -76 -65 63 145 hvcurveto
            200 -37 -201 -39 callsubr
            64 48 26 48 31 vhcurveto
            -86 vlineto
            -145 -70 -63 -76 -42 -37 18 46 -25 vhcurveto
            return
          </CharString>
          <CharString index="29">
            155 -34 206 -183 -146 -85 -134 -227 -220 91 return
          </CharString>
          <CharString index="30">
            vstem
            76 hmoveto
            358 37 -321 333 -48 callsubr
            hlineto
            return
          </CharString>
          <CharString index="31">
            -46 callsubr
            -209 120 -32 65 return
          </CharString>
          <CharString index="32">
            rmoveto
            29 hlineto
            -106 136 return
          </CharString>
          <CharString index="33">
            2 callsubr
            190 -20 -104 callsubr
            return
          </CharString>
          <CharString index="34">
            -75 callsubr
            -37 -15 rlineto
            endchar
          </CharString>
          <CharString index="35">
            16 callsubr
            195 -20 -103 callsubr
            return
          </CharString>
          <CharString index="36">
            -24 -14 -19 -11 -27 hhcurveto
            -22 -16 7 15 -30 hvcurveto
            return
          </CharString>
          <CharString index="37">
            rmoveto
            -276 hlineto
            93 9 45 79 85 hhcurveto
            84 53 -64 -86 hvcurveto
            return
          </CharString>
          <CharString index="38">
            vlineto
            -153 -122 47 180 return
          </CharString>
          <CharString index="39">
            -10 callsubr
            190 -20 -98 callsubr
            return
          </CharString>
          <CharString index="40">
            -20 hstem
            58 37 275 -88 callsubr
            return
          </CharString>
          <CharString index="41">
            -109 -49 -101 -81 -63 callsubr
            513 return
          </CharString>
          <CharString index="42">
            -20 hstem
            47 36 callsubr
            78 100 rmoveto
            -61 27 40 -41 77 hhcurveto
            120 63 94 150 hvcurveto
            -79 callsubr
            return
          </CharString>
          <CharString index="43">
            54 callsubr
            -77 callsubr
            return
          </CharString>
          <CharString index="44">
            -48 -39 32 35 -33 vhcurveto
            -48 vlineto
            -32 34 42 -24 50 hhcurveto
            54 107 50 196 hvcurveto
            return
          </CharString>
          <CharString index="45">
            3 callsubr
            114 37 -105 -104 -130 -40 -90 return
          </CharString>
          <CharString index="46">
            1 callsubr
            220 -85 callsubr
            return
          </CharString>
          <CharString index="47">
            -41 callsubr
            196 -20 -99 callsubr
            return
          </CharString>
          <CharString index="48">
            rmoveto
            -106 -144 -14 -1 callsubr
            196 0 149 hvcurveto
            212 -311 -119 158 vvcurveto
            57 74 18 75 56 64 -11 -5 28 vhcurveto
            39 vlineto
            5 -31 -64 9 -58 hhcurveto
            -89 -91 -21 -95 hvcurveto
            -200 310 134 -173 vvcurveto
            endchar
          </CharString>
          <CharString index="49">
            rmoveto
            -126 -17 callsubr
            243 -315 -80 158 vvcurveto
            97 73 48 75 56 69 -9 -5 28 vhcurveto
            37 38 callsubr
            -52 -134 hvcurveto
            -197 315 79 -191 vvcurveto
            endchar
          </CharString>
          <CharString index="50">
            -109 hvcurveto
            -65 -1 -145 -54 vvcurveto
            37 hlineto
            53 1 149 63 vvcurveto
            return
          </CharString>
          <CharString index="51">
            76 -58 57 -76 -74 -60 -57 -76 -77 60 -58 74 return
          </CharString>
          <CharString index="52">
            -136 431 18 callsubr
            hstem
            36 18 callsubr
            vstem
            170 431 -93 callsubr
            endchar
          </CharString>
          <CharString index="53">
            -57 callsubr
            196 -117 return
          </CharString>
          <CharString index="54">
            47 callsubr
            220 -92 callsubr
            return
          </CharString>
          <CharString index="55">
            -66 38 66 vlineto
            return
          </CharString>
          <CharString index="56">
            1 9 0 46 9 vvcurveto
            107 -65 75 -115 return
          </CharString>
          <CharString index="57">
            124 54 -71 vvcurveto
            -41 -48 -14 -62 -10 -11 0 1 -10 vhcurveto
            2 -33 rlineto
            -1 11 12 0 11 hhcurveto
            75 63 17 71 return
          </CharString>
          <CharString index="58">
            hhcurveto
            81 59 -100 -54 callsubr
            49 -54 return
          </CharString>
          <CharString index="59">
            321 37 -321 256 321 37 -358 return
          </CharString>
          <CharString index="60">
            -37 3 rmoveto
            -153 -42 -156 -140 return
          </CharString>
          <CharString index="61">
            hhcurveto
            -123 -62 -117 -154 return
          </CharString>
          <CharString index="62">
            rmoveto
            243 37 -164 hlineto
            137 170 rlineto
            24 30 8 27 29 vvcurveto
            69 -55 43 -63 -35 -42 -26 -12 -18 vhcurveto
            -37 vlineto
            11 17 42 27 33 hhcurveto
            45 40 -14 -58 -32 -23 -29 -19 -28 hvcurveto
            endchar
          </CharString>
          <CharString index="63">
            29 18 20 32 39 vvcurveto
            58 -44 43 -58 -40 -35 -22 -33 -17 vhcurveto
            44 hlineto
            15 15 23 3 9 hhcurveto
            44 22 -27 -37 -33 -19 -35 -45 -7 -6 1 2 -6 hvcurveto
            -48 vlineto
            1 5 5 0 6 hhcurveto
            return
          </CharString>
          <CharString index="64">
            vvcurveto
            194 -115 50 -61 -47 -51 -29 -42 -38 vhcurveto
            310 vlineto
            275 -492 rmoveto
            -174 -127 -47 -148 vhcurveto
            353 vlineto
            40 35 44 44 55 hhcurveto
            82 59 -77 -139 hvcurveto
            endchar
          </CharString>
          <CharString index="65">
            109 59 101 -29 callsubr
          </CharString>
          <CharString index="66">
            26 21 -21 330 37 300 37 return
          </CharString>
          <CharString index="67">
            -145 hvcurveto
            -458 37 330 return
          </CharString>
          <CharString index="68">
            vlineto
            -123 50 -121 128 return
          </CharString>
          <CharString index="69">
            23 callsubr
            42 56 -49 callsubr
            -58 -46 -30 -40 -37 vhcurveto
            return
          </CharString>
          <CharString index="70">
            -196 76 callsubr
            117 -31 callsubr
            155 -136 60 callsubr
          </CharString>
          <CharString index="71">
            rmoveto
            -29 hlineto
            106 -136 106 136 rlineto
            -29 hlineto
            -77 -82 rlineto
            return
          </CharString>
          <CharString index="72">
            252 rmoveto
            -166 248 26 callsubr
            166 -248 -168 -252 rlineto
            37 hlineto
            return
          </CharString>
          <CharString index="73">
            rmoveto
            44 35 34 46 44 -35 34 -44 -44 -35 -34 -44 -46 35 -34 44 hvcurveto
            -1 130 rmoveto
            30 22 -20 -30 -28 -19 -24 -31 -32 -20 25 27 30 22 20 28 hvcurveto
            return
          </CharString>
          <CharString index="74">
            3 -15 callsubr
            200 -20 -64 callsubr
            return
          </CharString>
          <CharString index="75">
            -20 54 callsubr
            -21 callsubr
            return
          </CharString>
          <CharString index="76">
            33 vstem
            51 564 -28 callsubr
            return
          </CharString>
          <CharString index="77">
            501 vlineto
            -312 -236 rmoveto
            return
          </CharString>
          <CharString index="78">
            -95 callsubr
            endchar
          </CharString>
          <CharString index="79">
            rmoveto
            27 hlineto
            6 136 rlineto
            -38 hlineto
            return
          </CharString>
          <CharString index="80">
            585 -21 136 -20 hstem
            return
          </CharString>
          <CharString index="81">
            -52 callsubr
            endchar
          </CharString>
          <CharString index="82">
            500 rmoveto
            -96 4 hlineto
            22 callsubr
            37 vlineto
            -11 callsubr
            return
          </CharString>
          <CharString index="83">
            31 callsubr
            -9 callsubr
            return
          </CharString>
          <CharString index="84">
            299 rmoveto
            401 vlineto
            -139 -63 rlineto
            -38 vlineto
            102 44 rlineto
            -344 vlineto
            return
          </CharString>
          <CharString index="85">
            37 hlineto
            -168 252 166 248 26 callsubr
            -166 -248 rlineto
            return
          </CharString>
          <CharString index="86">
            vstem
            113 hmoveto
            698 -37 -698 vlineto
            return
          </CharString>
          <CharString index="87">
            -30 177 -1 return
          </CharString>
          <CharString index="88">
            -21 500 -20 return
          </CharString>
          <CharString index="89">
            hmoveto
            96 44 37 -44 287 vlineto
            -198 -287 rlineto
            -37 161 -96 vlineto
            137 13 callsubr
            return
          </CharString>
          <CharString index="90">
            -149 -44 -1 callsubr
            201 30 169 hvcurveto
            return
          </CharString>
          <CharString index="91">
            27 callsubr
            -49 52 callsubr
            return
          </CharString>
          <CharString index="92">
            0 37 333 37 256 37 return
          </CharString>
          <CharString index="93">
            353 500 rmoveto
            -60 vlineto
            return
          </CharString>
          <CharString index="94">
            -1 38 63 callsubr
            return
          </CharString>
          <CharString index="95">
            21 -19 callsubr
            return
          </CharString>
          <CharString index="96">
            1 -8 -16 0 -9 hhcurveto
            -54 -107 -50 -196 hvcurveto
            -5 -40 -37 40 return
          </CharString>
          <CharString index="97">
            -43 -1 37 228 37 172 37 return
          </CharString>
          <CharString index="98">
            vstem
            107 hmoveto
            500 30 callsubr
            return
          </CharString>
          <CharString index="99">
            hstemhm
            41 17 callsubr
            return
          </CharString>
          <CharString index="100">
            407 545 rmoveto
            72 -80 83 -87 -69 -122 -79 -206 return
          </CharString>
          <CharString index="101">
            -12 callsubr
            hstem
            195 hmoveto
            -22 callsubr
            return
          </CharString>
          <CharString index="102">
            37 vstem
            410 95 callsubr
            return
          </CharString>
          <CharString index="103">
            -20 -8 callsubr
            return
          </CharString>
          <CharString index="104">
            37 vstem
            -7 callsubr
            -385 181 -20 callsubr
            vhcurveto
            return
          </CharString>
          <CharString index="105">
            -346 585 -21 136 -20 hstem
            48 -31 callsubr
            endchar
          </CharString>
          <CharString index="106">
            -154 vhcurveto
            -37 25 vlineto
            114 return
          </CharString>
          <CharString index="107">
            -219 148 -41 164 -5 return
          </CharString>
          <CharString index="108">
            5 -10 37 -6 -19 callsubr
            return
          </CharString>
          <CharString index="109">
            -25 19 -21 475 37 return
          </CharString>
          <CharString index="110">
            36 119 108 return
          </CharString>
          <CharString index="111">
            rmoveto
            258 hlineto
            -291 -663 rlineto
            358 37 -301 hlineto
            290 663 rlineto
            -314 hlineto
            endchar
          </CharString>
          <CharString index="112">
            377 37 -330 hlineto
            330 426 rlineto
            37 -354 -37 306 vlineto
            -329 -426 rlineto
            endchar
          </CharString>
          <CharString index="113">
            180 hmoveto
            319 90 callsubr
            -319 -500 rlineto
            24 96 callsubr
            75 59 58 77 hvcurveto
            return
          </CharString>
          <CharString index="114">
            hhcurveto
            27 callsubr
            return
          </CharString>
          <CharString index="115">
            35 callsubr
            222 -32 callsubr
            return
          </CharString>
          <CharString index="116">
            1 37 -17 -21 231 18 callsubr
            1 -20 hstemhm
            33 18 callsubr
            42 18 callsubr
            return
          </CharString>
          <CharString index="117">
            37 vlineto
            -213 -108 88 290 21 callsubr
            hvcurveto
            endchar
          </CharString>
          <CharString index="118">
            323 rmoveto
            37 -160 157 -37 -157 -161 -37 161 -164 37 164 vlineto
            return
          </CharString>
          <CharString index="119">
            37 vlineto
            -203 -110 48 180 109 44 100 96 56 56 -29 -44 22 hvcurveto
            endchar
          </CharString>
          <CharString index="120">
            700 rmoveto
            -47 hlineto
            -611 -700 rlineto
            44 hlineto
            return
          </CharString>
          <CharString index="121">
            39 callsubr
            458 -37 return
          </CharString>
          <CharString index="122">
            -299 -12 callsubr
            return
          </CharString>
          <CharString index="123">
            71 0 38 628 39 return
          </CharString>
          <CharString index="124">
            37 19 callsubr
            return
          </CharString>
          <CharString index="125">
            37 194 37 return
          </CharString>
          <CharString index="126">
            275 37 return
          </CharString>
          <CharString index="127">
            37 239 -20 hstem
            70 17 callsubr
            vstem
            return
          </CharString>
          <CharString index="128">
            119 55 130 105 56 55 -42 -75 13 return
          </CharString>
          <CharString index="129">
            109 49 101 81 6 15 0 -1 6 vhcurveto
            return
          </CharString>
          <CharString index="130">
            107 hmoveto
            390 vlineto
            41 36 43 return
          </CharString>
          <CharString index="131">
            38 132 38 return
          </CharString>
          <CharString index="132">
            342 rmoveto
            -37 21 37 -23 45 hhcurveto
            69 51 53 71 49 -24 41 -41 19 hvcurveto
            return
          </CharString>
          <CharString index="133">
            rlineto
            -37 hlineto
            return
          </CharString>
          <CharString index="134">
            -54 -117 return
          </CharString>
          <CharString index="135">
            -51 -21 135 -20 hstem
            133 63 rmoveto
            -50 hlineto
            -106 -135 rlineto
            29 hlineto
            return
          </CharString>
          <CharString index="136">
            rmoveto
            45 callsubr
            -95 -68 90 79 91 76 70 85 hvcurveto
            return
          </CharString>
          <CharString index="137">
            -37 -500 vlineto
            return
          </CharString>
          <CharString index="138">
            -20 55 callsubr
            return
          </CharString>
          <CharString index="139">
            437 20 callsubr
            70 750 rmoveto
            return
          </CharString>
          <CharString index="140">
            113 637 rmoveto
            284 -637 rlineto
            37 700 -37 -615 hlineto
            return
          </CharString>
          <CharString index="141">
            -70 callsubr
            endchar
          </CharString>
          <CharString index="142">
            -287 21 -21 698 -20 return
          </CharString>
          <CharString index="143">
            72 callsubr
            vstem
            return
          </CharString>
          <CharString index="144">
            rmoveto
            38 hlineto
            -6 136 rlineto
            -27 hlineto
            return
          </CharString>
          <CharString index="145">
            vlineto
            5 -31 -69 9 -58 hhcurveto
            -89 -91 return
          </CharString>
          <CharString index="146">
            94 150 hvcurveto
            return
          </CharString>
          <CharString index="147">
            hlineto
            hintmask 10010000
            93 212 rlineto
            -41 hlineto
            hintmask 10100000
            -93 -212 rlineto
            return
          </CharString>
          <CharString index="148">
            437 37 return
          </CharString>
          <CharString index="149">
            37 58 callsubr
            hintmask 11011100
            return
          </CharString>
          <CharString index="150">
            54 29 -32 -54 -49 -32 -38 -50 -18 -25 1 23 -17 hvcurveto
            return
          </CharString>
          <CharString index="151">
            53 callsubr
            77 410 92 callsubr
            endchar
          </CharString>
          <CharString index="152">
            90 73 -70 -91 -81 -64 -88 -97 return
          </CharString>
          <CharString index="153">
            -21 473 37 -10 -20 return
          </CharString>
          <CharString index="154">
            25 -2 37 665 -20 return
          </CharString>
          <CharString index="155">
            21 -21 700 -20 return
          </CharString>
          <CharString index="156">
            -60 37 500 vlineto
            return
          </CharString>
          <CharString index="157">
            114 85 89 117 82 -40 68 -68 33 hvcurveto
            return
          </CharString>
          <CharString index="158">
            -20 hstemhm
            62 17 callsubr
            return
          </CharString>
          <CharString index="159">
            -196 -235 return
          </CharString>
          <CharString index="160">
            95 -77 -95 vlineto
            return
          </CharString>
          <CharString index="161">
            hstem
            76 37 return
          </CharString>
          <CharString index="162">
            hstem
            70 37 return
          </CharString>
          <CharString index="163">
            -134 -100 37 344 37 345 37 hstemhm
            return
          </CharString>
          <CharString index="164">
            -277 21 -21 750 -20 hstem
            81 37 vstem
            return
          </CharString>
          <CharString index="165">
            437 37 -11 -4 callsubr
            return
          </CharString>
          <CharString index="166">
            vlineto
            153 131 -67 -248 hvcurveto
            endchar
          </CharString>
          <CharString index="167">
            -28 callsubr
            endchar
          </CharString>
          <CharString index="168">
            rmoveto
            -75 hlineto
            -84 -209 rlineto
            50 hlineto
            endchar
          </CharString>
          <CharString index="169">
            -209 -37 209 return
          </CharString>
          <CharString index="170">
            41 callsubr
            -11 -20 return
          </CharString>
          <CharString index="171">
            -37 vlineto
            endchar
          </CharString>
          <CharString index="172">
            hintmask 10100000
            -88 -201 rlineto
            42 hlineto
            hintmask 01100000
            return
          </CharString>
          <CharString index="173">
            1 -259 37 226 37 459 -20 return
          </CharString>
          <CharString index="174">
            -268 616 rlineto
            -53 -701 37 hlineto
            return
          </CharString>
          <CharString index="175">
            rmoveto
            -173 -61 -136 -223 -3 vhcurveto
            return
          </CharString>
          <CharString index="176">
            vlineto
            205 1 153 66 280 vvcurveto
            return
          </CharString>
          <CharString index="177">
            49 29 33 53 65 vvcurveto
            97 -74 72 -96 return
          </CharString>
          <CharString index="178">
            1 -2 37 220 37 return
          </CharString>
          <CharString index="179">
            37 284 37 return
          </CharString>
          <CharString index="180">
            344 rmoveto
            return
          </CharString>
          <CharString index="181">
            -142 -2 vhcurveto
            -3 -4 1 -3 hhcurveto
            return
          </CharString>
          <CharString index="182">
            -1 37 330 40 261 37 hstemhm
            return
          </CharString>
          <CharString index="183">
            -27 callsubr
            48 33 return
          </CharString>
          <CharString index="184">
            316 -181 40 -177 1 vhcurveto
            return
          </CharString>
          <CharString index="185">
            34 9 34 return
          </CharString>
          <CharString index="186">
            rlineto
            -51 hlineto
            return
          </CharString>
          <CharString index="187">
            145 75 return
          </CharString>
          <CharString index="188">
            -24 -32 -34 hvcurveto
            -48 vlineto
            35 33 return
          </CharString>
          <CharString index="189">
            -167 -76 -21 824 -20 hstem
            return
          </CharString>
          <CharString index="190">
            24 32 34 hvcurveto
            48 vlineto
            -35 -33 return
          </CharString>
          <CharString index="191">
            -143 -100 37 726 37 hstemhm
            return
          </CharString>
          <CharString index="192">
            22 167 -21 309 -20 hstem
            return
          </CharString>
          <CharString index="193">
            75 -236 1 vhcurveto
            -701 37 return
          </CharString>
          <CharString index="194">
            73 62 -60 -72 -65 -56 -64 -76 return
          </CharString>
          <CharString index="195">
            rmoveto
            -167 -116 vlineto
            endchar
          </CharString>
          <CharString index="196">
            209 37 -209 return
          </CharString>
          <CharString index="197">
            500 26 callsubr
            return
          </CharString>
          <CharString index="198">
            0 37 626 37 return
          </CharString>
          <CharString index="199">
            rmoveto
            53 callsubr
            return
          </CharString>
          <CharString index="200">
            37 41 callsubr
            return
          </CharString>
          <CharString index="201">
            367 rmoveto
            return
          </CharString>
          <CharString index="202">
            269 rmoveto
            return
          </CharString>
          <CharString index="203">
            231 rmoveto
            return
          </CharString>
        <CharString name=".notdef">
          -273 endchar
        </CharString>
        <CharString name="A">
          -41 callsubr
          -99 callsubr
          endchar
        </CharString>
        <CharString name="AE">
          167 0 37 293 37 3 37 256 37 hstem
          71 37 214 38 vstem
          276 700 rmoveto
          -97 -108 -97 -40 callsubr
          214 -330 279 37 -241 333 241 37 -241 256 241 37 vlineto
          -279 -333 rmoveto
          -214 90 hlineto
          105 85 101 81 25 1 0 -1 22 vhcurveto
          endchar
        </CharString>
        <CharString name="Aacute">
          -60 callsubr
          -11 251 -80 callsubr
        </CharString>
        <CharString name="Acircumflex">
          -41 callsubr
          188 -20 -99 callsubr
          -58 122 -89 callsubr
        </CharString>
        <CharString name="Adieresis">
          -41 callsubr
          60 66 55 callsubr
          43 24 callsubr
          33 -101 callsubr
          -241 196 -86 callsubr
        </CharString>
        <CharString name="Agrave">
          -60 callsubr
          -100 130 -73 callsubr
        </CharString>
        <CharString name="Aring">
          -41 callsubr
          17 28 102 28 55 callsubr
          72 28 102 28 54 37 vstem
          258 721 -34 callsubr
          171 -203 -102 callsubr
          endchar
        </CharString>
        <CharString name="Atilde">
          -41 callsubr
          53 78 callsubr
          -99 callsubr
          -13 192 -107 callsubr
        </CharString>
        <CharString name="B">
          -5 -3 38 330 43 254 38 hstem
          75 38 238 37 9 37 vstem
          76 -3 rmoveto
          236 1 122 75 125 vvcurveto
          129 -96 56 -94 8 vhcurveto
          68 9 76 38 105 vvcurveto
          106 -113 44 -200 7 vhcurveto
          322 -499 rmoveto
          -58 -55 -105 -229 -3 vhcurveto
          330 vlineto
          100 184 -17 -147 hvcurveto
          -46 345 rmoveto
          -47 -22 -88 -217 -3 vhcurveto
          254 vlineto
          145 94 -40 -76 hvcurveto
          endchar
        </CharString>
        <CharString name="C">
          -45 -1 37 627 37 hstem
          49 -3 callsubr
          10 callsubr
        </CharString>
        <CharString name="Ccedilla">
          -45 -203 33 -33 239 -16 -21 664 37 hstemhm
          49 37 162 158 -33 33 hintmask 10111100
          -7 callsubr
          -267 87 -96 112 -35 vhcurveto
          hintmask 10111010
          1 -115 -50 callsubr
          105 -100 -57 -16 74 hvcurveto
          -6 38 39 -2 40 hhcurveto
          hintmask 01011100
          10 callsubr
        </CharString>
        <CharString name="D">
          6 -3 38 627 39 hstem
          76 36 callsubr
          434 73 callsubr
          77 callsubr
          -704 69 callsubr
          -37 3 68 callsubr
          627 59 callsubr
        </CharString>
        <CharString name="E">
          3 -15 callsubr
          -64 callsubr
          endchar
        </CharString>
        <CharString name="Eacute">
          -33 callsubr
          299 185 -80 callsubr
        </CharString>
        <CharString name="Ecircumflex">
          3 -15 callsubr
          192 -20 -64 callsubr
          259 56 -89 callsubr
        </CharString>
        <CharString name="Edieresis">
          3 -15 callsubr
          64 66 54 callsubr
          49 24 callsubr
          -77 callsubr
          86 130 -86 callsubr
        </CharString>
        <CharString name="Egrave">
          -33 callsubr
          188 64 -73 callsubr
        </CharString>
        <CharString name="Eth">
          18 -3 38 292 37 298 39 hstem
          88 36 callsubr
          88 327 rmoveto
          -330 69 callsubr
          77 callsubr
          -337 -88 -37 vlineto
          409 20 68 callsubr
          292 115 37 -115 298 59 callsubr
        </CharString>
        <CharString name="Euro">
          75 2 38 237 37 46 37 254 39 hstem
          80 37 vstem
          82 277 rmoveto
          -178 17 85 -97 123 hhcurveto
          69 88 31 85 28 hvcurveto
          -43 hlineto
          -54 -22 -68 -24 -51 hhcurveto
          -119 -56 110 127 -14 hvcurveto
          371 37 -373 hlineto
          -1 11 0 11 11 vvcurveto
          13 374 37 -373 vlineto
          172 12 72 82 112 hhcurveto
          59 46 -29 -58 31 hvcurveto
          43 hlineto
          73 -31 -55 53 -96 hhcurveto
          -134 -83 -101 -192 -13 hvcurveto
          -45 -37 44 -46 -44 -37 hlineto
          endchar
        </CharString>
        <CharString name="F">
          -4 21 -21 370 37 256 37 54 callsubr
          vstem
          113 hmoveto
          370 -48 callsubr
          -700 vlineto
          endchar
        </CharString>
        <CharString name="G">
          -11 -1 38 19 callsubr
          314 37 hstem
          49 37 284 -3 callsubr
          350 -135 -37 98 -275 vlineto
          -189 10 -95 94 273 vvcurveto
          21 callsubr
          vhcurveto
          endchar
        </CharString>
        <CharString name="H">
          34 21 -21 330 37 333 -20 hstem
          76 36 callsubr
          434 hmoveto
          700 -37 -333 -284 333 -37 -700 37 330 284 -330 vlineto
          endchar
        </CharString>
        <CharString name="I">
          -287 21 -21 698 -32 callsubr
          endchar
        </CharString>
        <CharString name="Iacute">
          8 callsubr
          144 885 -80 callsubr
        </CharString>
        <CharString name="Icircumflex">
          35 callsubr
          214 -32 callsubr
          90 756 -89 callsubr
        </CharString>
        <CharString name="Idieresis">
          35 callsubr
          86 66 hstem
          -15 38 53 37 42 38 -21 callsubr
          -91 830 -86 callsubr
        </CharString>
        <CharString name="Igrave">
          8 callsubr
          14 764 -73 callsubr
        </CharString>
        <CharString name="J">
          -74 -4 37 667 -20 hstem
          18 37 238 37 vstem
          18 150 rmoveto
          -134 86 -20 40 97 89 50 196 vhcurveto
          458 -37 -457 vlineto
          -159 -59 -51 -88 -25 -63 8 109 -3 vhcurveto
          endchar
        </CharString>
        <CharString name="K">
          -9 21 -21 378 37 285 -20 21 -20 hstemhm
          76 37 283 37 hintmask 11011100
          433 hmoveto
          80 vlineto
          238 -76 97 -108 -15 -16 -2 -4 -16 vhcurveto
          232 292 79 callsubr
          -270 -346 rlineto
          hintmask 11101100
          345 -37 -700 37 296 vlineto
          30 23 38 52 70 hhcurveto
          127 25 -165 -145 hvcurveto
          -68 vlineto
          endchar
        </CharString>
        <CharString name="L">
          -40 0 37 663 -20 54 callsubr
          vstem
          424 hmoveto
          37 -311 663 -37 -700 vlineto
          endchar
        </CharString>
        <CharString name="M">
          114 21 -21 701 -20 hstem
          76 35 367 36 vstem
          477 hmoveto
          37 701 -49 hlineto
          -170 -392 -171 392 rlineto
          -48 -701 35 642 hlineto
          167 -383 rlineto
          34 hlineto
          167 383 rlineto
          endchar
        </CharString>
        <CharString name="N">
          34 48 callsubr
          21 -20 hstemhm
          76 72 callsubr
          hintmask 11011000
          33 callsubr
          hintmask 10111000
          67 callsubr
          endchar
        </CharString>
        <CharString name="Ntilde">
          34 48 callsubr
          21 -20 76 78 callsubr
          hstemhm
          76 72 callsubr
          hintmask 11011110
          33 callsubr
          hintmask 10111110
          67 callsubr
          269 826 -107 callsubr
        </CharString>
        <CharString name="O">
          16 callsubr
          -103 callsubr
          endchar
        </CharString>
        <CharString name="OE">
          47 -15 callsubr
          hstemhm
          48 37 174 37 -37 224 hintmask 11110100
          259 700 rmoveto
          -130 -14 -81 -129 -213 vvcurveto
          -209 90 -135 126 vhcurveto
          219 37 hlineto
          hintmask 11111000
          -187 333 hlineto
          hintmask 11110100
          187 37 hlineto
          hintmask 11111000
          -187 256 hlineto
          hintmask 11110100
          187 37 hlineto
          -398 -353 rmoveto
          191 70 107 104 16 vhcurveto
          -623 vlineto
          -120 19 -54 147 143 vvcurveto
          endchar
        </CharString>
        <CharString name="Oacute">
          -72 callsubr
          -61 538 -80 callsubr
        </CharString>
        <CharString name="Ocircumflex">
          16 callsubr
          187 -20 -103 callsubr
          -111 409 -89 callsubr
        </CharString>
        <CharString name="Odieresis">
          16 callsubr
          59 66 hstem
          49 37 82 24 callsubr
          84 -105 callsubr
          -292 483 -86 callsubr
        </CharString>
        <CharString name="Ograve">
          -72 callsubr
          -186 417 -73 callsubr
        </CharString>
        <CharString name="Oslash">
          91 0 38 628 39 -5 -20 hstemhm
          61 37 374 37 hintmask 10111000
          509 73 callsubr
          78 -9 91 -32 71 vhcurveto
          81 116 rlineto
          -40 hlineto
          -58 -83 rlineto
          hintmask 11011000
          52 -33 -50 36 -76 hhcurveto
          -146 -85 -134 -227 -91 16 -74 27 -56 hvcurveto
          -86 -123 rlineto
          43 hlineto
          62 89 rlineto
          -58 40 57 -31 69 hhcurveto
          80 callsubr
          126 218 hvcurveto
          -47 callsubr
          -66 -46 34 52 -31 vhcurveto
          295 422 rlineto
          19 -51 11 -67 -81 vvcurveto
          -177 319 rmoveto
          55 45 -29 -56 31 hvcurveto
          -296 -422 rlineto
          -23 55 -9 67 66 vvcurveto
          207 75 112 122 vhcurveto
          endchar
        </CharString>
        <CharString name="Otilde">
          16 callsubr
          52 78 callsubr
          -103 callsubr
          -58 479 -107 callsubr
        </CharString>
        <CharString name="P">
          -19 21 -21 296 36 331 38 hstem
          76 36 callsubr
          397 497 rmoveto
          -127 -132 -36 74 callsubr
          330 vlineto
          229 -3 55 -93 -70 vvcurveto
          -284 -201 rmoveto
          126 7 195 10 187 vvcurveto
          125 -122 86 callsubr
          vlineto
          endchar
        </CharString>
        <CharString name="Q">
          71 -129 37 98 37 625 37 hstem
          49 37 374 37 vstem
          495 -87 rmoveto
          -3 -10 -11 -2 -11 hhcurveto
          -52 -40 51 59 -21 hvcurveto
          97 36 50 112 178 vvcurveto
          -78 callsubr
          -118 137 13 13 1 2 12 vhcurveto
          -100 32 68 -38 42 hhcurveto
          13 13 2 3 12 hvcurveto
          -35 471 rmoveto
          -153 -42 -151 -140 -140 -52 151 153 207 75 114 122 109 68 -114 -207 vhcurveto
          endchar
        </CharString>
        <CharString name="R">
          -25 21 -21 663 38 54 callsubr
          261 37 vstem
          434 hmoveto
          -199 303 rlineto
          93 19 83 48 130 vvcurveto
          125 -99 86 callsubr
          290 vlineto
          26 1 28 2 28 4 194 -297 rcurveline
          -15 497 rmoveto
          -127 -109 -39 74 callsubr
          333 vlineto
          229 -3 32 -103 -60 vvcurveto
          endchar
        </CharString>
        <CharString name="S">
          -48 -2 37 628 37 hstem
          37 37 278 37 vstem
          352 205 -58 callsubr
        </CharString>
        <CharString name="Scaron">
          -48 -2 37 628 37 187 -20 hstem
          37 37 278 37 vstem
          133 887 -36 callsubr
          142 -600 -58 callsubr
        </CharString>
        <CharString name="T">
          -92 21 -21 663 37 hstem
          173 37 vstem
          210 hmoveto
          663 161 37 -358 -37 160 -663 vlineto
          endchar
        </CharString>
        <CharString name="Thorn">
          -3 21 -21 158 37 316 37 142 -20 54 callsubr
          300 37 vstem
          450 358 rmoveto
          121 -87 69 -133 vhcurveto
          -117 142 -37 -690 37 158 101 hlineto
          134 102 69 131 hvcurveto
          -37 -2 rmoveto
          -103 -83 -58 -114 vhcurveto
          -103 316 113 hlineto
          113 74 -57 -98 hvcurveto
          endchar
        </CharString>
        <CharString name="U">
          25 -2 37 665 -92 callsubr
          endchar
        </CharString>
        <CharString name="Uacute">
          -53 callsubr
          134 887 -80 callsubr
        </CharString>
        <CharString name="Ucircumflex">
          47 callsubr
          212 -92 callsubr
          76 758 -89 callsubr
        </CharString>
        <CharString name="Udieresis">
          47 callsubr
          84 66 hstem
          71 37 43 24 callsubr
          33 -96 callsubr
          -98 832 -86 callsubr
        </CharString>
        <CharString name="Ugrave">
          -53 callsubr
          11 766 -73 callsubr
        </CharString>
        <CharString name="V">
          -65 48 callsubr
          hstem
          180 hmoveto
          52 hlineto
          149 700 26 callsubr
          -139 -640 -139 640 26 callsubr
          endchar
        </CharString>
        <CharString name="W">
          101 48 callsubr
          hstem
          179 60 rmoveto
          -112 640 26 callsubr
          121 -700 rlineto
          57 hlineto
          80 544 81 -544 rlineto
          57 hlineto
          121 700 26 callsubr
          -112 -640 -91 640 26 callsubr
          endchar
        </CharString>
        <CharString name="X">
          59 0 37 627 37 -1 -20 hstemhm
          251 42 hintmask 10110000
          505 700 rmoveto
          -37 hlineto
          -179 -286 rlineto
          hintmask 11010000
          176 -6 -28 111 -108 hhcurveto
          -50 -43 81 callsubr
          40 32 48 hhcurveto
          105 5 -167 -100 hvcurveto
          -41 vlineto
          -229 -356 rlineto
          43 hlineto
          191 292 rlineto
          -172 6 20 -120 108 hhcurveto
          50 45 83 callsubr
          -42 -32 -48 hhcurveto
          -96 -7 151 117 hvcurveto
          43 vlineto
          endchar
        </CharString>
        <CharString name="Y">
          71 callsubr
          408 -65 callsubr
          endchar
        </CharString>
        <CharString name="Yacute">
          71 callsubr
          408 -20 220 -65 callsubr
          228 786 -80 callsubr
        </CharString>
        <CharString name="Ydieresis">
          71 callsubr
          392 66 -50 -20 hstemhm
          47 37 49 38 112 38 47 37 hintmask 11101111
          133 750 rmoveto
          -52 callsubr
          112 hmoveto
          -52 callsubr
          -243 -650 rmoveto
          -61 27 40 -41 77 hhcurveto
          120 63 39 callsubr
          hintmask 11011111
          -79 callsubr
          endchar
        </CharString>
        <CharString name="Z">
          -91 91 callsubr
          hstem
          43 663 4 callsubr
        </CharString>
        <CharString name="Zcaron">
          -91 91 callsubr
          182 -20 hstem
          145 882 -36 callsubr
          -179 -137 4 callsubr
        </CharString>
        <CharString name="a">
          -1 38 58 callsubr
          hintmask 10111000
          -14 callsubr
          hintmask 11011000
          -94 callsubr
          hintmask 10111000
          -30 callsubr
          hintmask 11011000
          -87 callsubr
          endchar
        </CharString>
        <CharString name="aacute">
          -13 callsubr
          220 -90 callsubr
          257 421 -80 callsubr
        </CharString>
        <CharString name="acircumflex">
          -13 callsubr
          212 -90 callsubr
          218 292 -89 callsubr
        </CharString>
        <CharString name="acute">
          186 -27 callsubr
          535 685 -80 callsubr
        </CharString>
        <CharString name="adieresis">
          -13 callsubr
          84 66 hstemhm
          41 37 37 24 callsubr
          30 37 hintmask 10111111
          -14 callsubr
          hintmask 11011111
          -94 callsubr
          hintmask 10111111
          -30 callsubr
          hintmask 11011111
          -87 callsubr
          37 366 -86 callsubr
        </CharString>
        <CharString name="ae">
          269 -1 37 228 37 173 36 -10 -20 31 -4 callsubr
          276 37 hintmask 11100111
          705 36 rmoveto
          -193 -112 43 159 -10 hvcurveto
          26 312 vlineto
          -51 callsubr
          -35 -59 -20 -65 -39 vhcurveto
          hintmask 11010111
          75 -37 -60 vlineto
          hintmask 11001111
          -94 callsubr
          112 vlineto
          61 -96 127 -15 127 -1 rrcurveto
          -627 265 rmoveto
          hintmask 11100111
          -87 callsubr
          588 37 34 callsubr
        </CharString>
        <CharString name="agrave">
          -13 callsubr
          220 -90 callsubr
          152 300 -73 callsubr
        </CharString>
        <CharString name="ampersand">
          30 0 37 611 41 hstem
          37 36 45 40 172 37 vstem
          447 299 rmoveto
          -21 -50 -23 -53 -27 -46 -145 227 rcurveline
          -26 41 -47 80 60 vvcurveto
          62 50 28 46 31 42 -23 -56 3 vhcurveto
          37 hlineto
          78 -1 -56 42 -54 hhcurveto
          -85 -53 -67 -68 -55 24 -52 27 -44 hvcurveto
          -73 -17 -59 -85 -89 vvcurveto
          -104 71 -108 131 53 44 31 54 39 vhcurveto
          56 -85 rlineto
          42 hlineto
          -76 117 30 49 28 62 29 71 rlinecurve
          -411 -83 rmoveto
          77 58 68 61 6 vhcurveto
          163 -250 rlineto
          -48 -34 -38 -32 -45 hhcurveto
          -96 -69 93 86 hvcurveto
          endchar
        </CharString>
        <CharString name="aring">
          -13 callsubr
          84 28 102 28 hstemhm
          41 37 77 28 102 28 40 37 hintmask 1011111110000000
          234 564 -34 callsubr
          120 -194 rmoveto
          -60 vlineto
          hintmask 1101111110000000
          -94 callsubr
          hintmask 1011111110000000
          -30 callsubr
          hintmask 1101111110000000
          -87 callsubr
          endchar
        </CharString>
        <CharString name="asciicircum">
          -148 557 -21 156 -20 hstem
          245 536 rmoveto
          29 hlineto
          -116 156 -116 -156 rlineto
          29 hlineto
          87 99 rlineto
          endchar
        </CharString>
        <CharString name="asciitilde">
          -107 231 78 callsubr
          hstem
          315 300 -107 callsubr
        </CharString>
        <CharString name="asterisk">
          9 271 -21 400 -20 hstem
          225 37 vstem
          217 450 rmoveto
          -163 -150 rlineto
          51 hlineto
          120 111 rlineto
          -161 37 159 vlineto
          118 -109 rlineto
          51 hlineto
          -163 150 163 151 79 callsubr
          -118 -109 rlineto
          158 -37 -160 vlineto
          -120 111 79 callsubr
          endchar
        </CharString>
        <CharString name="at">
          269 -126 37 93 32 400 33 120 37 hstem
          47 37 106 34 247 34 168 37 vstem
          471 459 rmoveto
          -54 vlineto
          36 -33 -41 28 -53 hhcurveto
          -48 -106 -45 -176 -160 94 -84 170 168 88 139 160 92 -45 231 -280 -166 -172 -120 -243 -204 130 -185 273 hvcurveto
          37 vlineto
          -196 3 -170 114 228 vvcurveto
          225 151 108 158 174 106 -119 -168 vhcurveto
          -222 -168 -37 2 vvcurveto
          414 vlineto
          -281 -212 rmoveto
          122 53 67 73 50 39 -39 -37 32 vhcurveto
          -324 vlineto
          -148 -99 49 162 hvcurveto
          endchar
        </CharString>
        <CharString name="atilde">
          -13 callsubr
          77 78 callsubr
          -8 callsubr
          hintmask 10111110
          -14 callsubr
          hintmask 11011110
          -94 callsubr
          hintmask 10111110
          -30 callsubr
          hintmask 11011110
          -87 callsubr
          272 362 -107 callsubr
        </CharString>
        <CharString name="b">
          -1 38 32 callsubr
          -751 vlineto
          177 1 172 29 238 -43 callsubr
        </CharString>
        <CharString name="backslash">
          91 -79 -21 800 -20 hstem
          500 -100 rmoveto
          44 hlineto
          -477 800 rlineto
          -44 hlineto
          endchar
        </CharString>
        <CharString name="bar">
          -291 -170 -21 907 -20 hstem
          74 37 vstem
          111 -191 rmoveto
          907 -37 -907 vlineto
          endchar
        </CharString>
        <CharString name="braceleft">
          56 callsubr
          101 37 -37 217 -205 25 -25 37 hintmask 11100100
          13 281 rmoveto
          58 -3 42 -29 -78 vvcurveto
          hintmask 11101000
          -49 -12 -44 -46 vvcurveto
          -85 45 -47 98 vhcurveto
          74 37 -77 hlineto
          hintmask 11110000
          -69 -34 37 57 hvcurveto
          hintmask 11100010
          41 12 54 44 vvcurveto
          83 -32 31 -60 15 vhcurveto
          60 15 32 33 82 vvcurveto
          hintmask 11110000
          44 -12 53 41 vvcurveto
          57 37 39 67 vhcurveto
          hintmask 11101000
          76 37 -74 hlineto
          -98 -45 -49 -85 hvcurveto
          hintmask 11100100
          -47 12 -43 -48 vvcurveto
          -79 -42 -28 -59 -3 vhcurveto
          endchar
        </CharString>
        <CharString name="braceright">
          56 callsubr
          24 217 -49 37 -25 25 -25 37 hintmask 11100100
          330 318 rmoveto
          -59 3 -42 28 79 vvcurveto
          hintmask 11110000
          48 12 43 47 vvcurveto
          85 -45 49 -98 vhcurveto
          -74 -37 76 hlineto
          hintmask 11100100
          67 37 -39 -57 hvcurveto
          hintmask 11101000
          -41 -12 -53 -44 vvcurveto
          -82 32 -33 60 -15 vhcurveto
          -60 -15 -32 -31 -83 vvcurveto
          hintmask 11100010
          -44 12 -54 -41 vvcurveto
          -57 -34 -37 -69 vhcurveto
          hintmask 11110000
          -77 -37 74 hlineto
          98 45 47 85 hvcurveto
          hintmask 11101000
          46 -12 44 49 vvcurveto
          78 42 29 58 3 vhcurveto
          endchar
        </CharString>
        <CharString name="bracketleft">
          84 callsubr
          76 37 -37 233 hintmask 11010000
          309 -100 rmoveto
          37 vlineto
          hintmask 11100000
          -196 726 hlineto
          hintmask 11010000
          196 37 -233 -800 hlineto
          endchar
        </CharString>
        <CharString name="bracketright">
          84 callsubr
          24 233 -37 37 hintmask 11100000
          257 -100 rmoveto
          800 -233 -37 vlineto
          hintmask 11010000
          196 -726 hlineto
          hintmask 11100000
          -196 -37 hlineto
          endchar
        </CharString>
        <CharString name="brokenbar">
          -285 -170 -21 907 -20 hstem
          77 37 vstem
          114 365 rmoveto
          351 -37 -351 vlineto
          -205 vmoveto
          -351 37 351 vlineto
          endchar
        </CharString>
        <CharString name="bullet">
          -193 210 185 hstem
          49 185 vstem
          49 302 rmoveto
          -52 40 -40 52 51 42 40 52 51 -42 42 -51 -52 -40 -42 -51 vhcurveto
          endchar
        </CharString>
        <CharString name="c">
          -60 -1 93 callsubr
          hstem
          41 37 vstem
          390 399 rmoveto
          68 -23 -68 43 -87 hhcurveto
          -16 callsubr
          173 -20 callsubr
          hvcurveto
          12 callsubr
        </CharString>
        <CharString name="ccedilla">
          -60 -206 33 -33 242 -16 -21 474 37 hstemhm
          41 37 148 158 -33 33 hintmask 10111100
          390 399 rmoveto
          68 -23 -68 43 -87 7 callsubr
          -49 -196 -159 79 -65 106 -26 hvcurveto
          hintmask 10111010
          1 -116 -50 callsubr
          106 -101 -60 -15 79 hvcurveto
          -6 39 42 -2 42 hhcurveto
          hintmask 01011100
          12 callsubr
        </CharString>
        <CharString name="cedilla">
          -115 -221 33 188 -20 hstemhm
          122 158 -33 33 hintmask 11100000
          122 hmoveto
          hintmask 11010000
          1 -116 -50 callsubr
          109 -108 -67 -9 91 hvcurveto
          endchar
        </CharString>
        <CharString name="cent">
          -36 21 -21 89 93 callsubr
          90 -20 hstem
          47 37 135 37 vstem
          256 hmoveto
          100 vlineto
          -8 44 48 -3 49 hhcurveto
          37 vlineto
          -54 -47 3 8 -40 hvcurveto
          423 vlineto
          44 -9 40 -27 18 -35 rrcurveto
          38 hlineto
          -20 58 -52 39 -68 11 rrcurveto
          93 -37 -90 vlineto
          -54 -118 -49 -196 -152 72 -67 100 -28 hvcurveto
          -108 vlineto
          -135 354 rmoveto
          107 42 98 93 4 vhcurveto
          -416 vlineto
          -89 28 -46 62 117 vvcurveto
          endchar
        </CharString>
        <CharString name="circumflex">
          -104 577 -21 136 -20 hstem
          264 556 -89 callsubr
        </CharString>
        <CharString name="colon">
          -283 0 95 315 95 hstem
          58 77 vstem
          135 hmoveto
          44 callsubr
        </CharString>
        <CharString name="comma">
          -284 -90 -21 209 -20 hstem
          150 98 61 callsubr
        </CharString>
        <CharString name="copyright">
          36 267 37 54 34 188 35 49 37 hstem
          39 37 66 36 258 37 vstem
          256 267 rmoveto
          121 96 94 125 123 -94 92 -123 -120 -97 -92 -123 -125 97 -94 120 hvcurveto
          -2 397 rmoveto
          111 71 -68 -110 -99 -62 -83 -116 -115 -67 86 96 110 75 68 103 hvcurveto
          97 -116 rmoveto
          41 -13 -41 26 -52 hhcurveto
          -33 -70 -10 -117 -130 88 0 97 hvcurveto
          25 34 -30 hlineto
          -97 -47 2 93 61 18 32 52 29 24 -5 -26 14 hvcurveto
          endchar
        </CharString>
        <CharString name="currency">
          92 1 85 -37 37 328 37 -37 86 hstemhm
          82 37 328 37 hintmask 10011100
          534 500 rmoveto
          -51 hlineto
          -79 -88 rlineto
          hintmask 10101100
          25 -34 -41 14 -46 hhcurveto
          -45 -41 -14 -24 -34 hvcurveto
          hintmask 10011100
          -78 87 79 callsubr
          101 -112 rlineto
          -33 -35 -20 -48 -54 vvcurveto
          -55 20 -48 33 -35 vhcurveto
          -101 -112 rlineto
          51 hlineto
          78 86 rlineto
          hintmask 01101100
          -24 34 41 -14 45 hhcurveto
          45 42 14 25 34 hvcurveto
          hintmask 10011100
          79 -87 rlineto
          51 hlineto
          -102 112 rlineto
          32 36 20 48 54 vvcurveto
          53 -19 48 -33 35 vhcurveto
          -151 27 rmoveto
          94 72 -68 -95 -83 -64 -82 -99 -97 -68 85 80 95 75 68 87 hvcurveto
          endchar
        </CharString>
        <CharString name="d">
          -1 38 41 callsubr
          239 -20 hstem
          41 17 callsubr
          vstem
          353 750 rmoveto
          -310 vlineto
          -94 callsubr
          751 vlineto
          -312 -486 rmoveto
          -42 callsubr
        </CharString>
        <CharString name="dagger">
          -170 -170 -21 454 37 416 -20 hstem
          135 37 vstem
          172 -191 rmoveto
          454 101 37 -101 416 -37 -416 -102 -37 102 -454 vlineto
          endchar
        </CharString>
        <CharString name="daggerdbl">
          49 -170 -21 349 37 180 37 304 -20 hstem
          244 37 vstem
          281 -191 rmoveto
          349 89 callsubr
          180 89 callsubr
          304 -37 -304 62 callsubr
          -180 62 callsubr
          -349 vlineto
          endchar
        </CharString>
        <CharString name="degree">
          -55 callsubr
        </CharString>
        <CharString name="dieresis">
          20 564 66 hstem
          140 24 callsubr
          vstem
          140 630 -86 callsubr
        </CharString>
        <CharString name="divide">
          -41 0 95 134 37 144 95 hstem
          194 77 vstem
          384 229 rmoveto
          37 -333 -37 vlineto
          220 -229 rmoveto
          44 callsubr
        </CharString>
        <CharString name="dollar">
          -52 -69 -21 88 37 628 36 91 -20 hstem
          36 36 131 37 111 37 vstem
          240 -90 rmoveto
          111 vlineto
          79 26 69 51 99 vvcurveto
          116 -73 42 -75 30 vhcurveto
          278 vlineto
          52 -2 57 -7 25 -4 rrcurveto
          36 vlineto
          -27 4 -55 7 -52 2 rrcurveto
          91 -37 -91 vlineto
          -85 -6 -82 -70 -109 vvcurveto
          -5 vlineto
          -98 85 -28 82 -30 vhcurveto
          -300 vlineto
          -13 -47 -54 -5 -54 hhcurveto
          -37 25 vlineto
          37 47 3 10 46 hvcurveto
          -101 vlineto
          -131 608 rmoveto
          81 62 55 69 8 vhcurveto
          -263 vlineto
          -69 26 -62 23 70 vvcurveto
          279 -323 rmoveto
          -64 -45 -42 -66 -25 vhcurveto
          275 vlineto
          60 -25 51 -33 -76 vvcurveto
          endchar
        </CharString>
        <CharString name="e">
          -10 callsubr
          -98 callsubr
          endchar
        </CharString>
        <CharString name="eacute">
          -68 callsubr
          -14 362 -80 callsubr
        </CharString>
        <CharString name="ecircumflex">
          -10 callsubr
          182 -20 -98 callsubr
          -46 233 -89 callsubr
        </CharString>
        <CharString name="edieresis">
          -10 callsubr
          54 66 hstem
          40 37 44 24 callsubr
          25 -100 callsubr
          -233 307 -86 callsubr
        </CharString>
        <CharString name="egrave">
          -68 callsubr
          -131 241 -73 callsubr
        </CharString>
        <CharString name="eight">
          15 75 callsubr
          46 37 -6 37 267 37 -11 37 hintmask 11110010
          245 -1 rmoveto
          50 callsubr
          hintmask 11101100
          70 callsubr
          -94 -77 -72 -97 -63 32 -54 47 -29 vhcurveto
          hintmask 11110010
          -68 -32 -42 -70 -82 vvcurveto
          -117 86 -89 113 vhcurveto
          -1 367 29 callsubr
          2 301 rmoveto
          hintmask 11101100
          87 callsubr
          -75 -60 67 62 72 65 60 67 hvcurveto
          endchar
        </CharString>
        <CharString name="ellipsis">
          -1 0 66 hstem
          53 47 114 47 114 47 cntrmask 01110000
          53 66 rmoveto
          -66 47 66 vlineto
          114 hmoveto
          -66 47 66 vlineto
          114 hmoveto
          -66 47 66 vlineto
          endchar
        </CharString>
        <CharString name="emdash">
          94 260 37 hstem
          518 260 rmoveto
          37 -466 64 callsubr
        </CharString>
        <CharString name="endash">
          -23 263 37 hstem
          401 263 rmoveto
          37 -349 64 callsubr
        </CharString>
        <CharString name="equal">
          105 208 37 150 37 hstem
          518 395 rmoveto
          37 -455 -37 vlineto
          455 -187 rmoveto
          37 -455 64 callsubr
        </CharString>
        <CharString name="eth">
          2 callsubr
          207 -20 hstem
          41 37 295 -5 callsubr
          120 -81 140 -102 94 vhcurveto
          71 32 -18 28 -81 -36 -40 32 -42 24 -41 14 rlinecurve
          -12 -32 32 -10 35 -19 32 -25 rlinecurve
          -71 -32 19 -28 81 36 39 -34 36 -41 28 -36 rlinecurve
          9 -20 -23 5 -26 -84 callsubr
          -184 -235 rmoveto
          -108 9 -40 92 102 vvcurveto
          117 -62 callsubr
          -107 -10 vhcurveto
          endchar
        </CharString>
        <CharString name="exclam">
          57 callsubr
          81 66 rmoveto
          -52 callsubr
          -1 134 rmoveto
          550 -37 -550 vlineto
          endchar
        </CharString>
        <CharString name="exclamdown">
          57 callsubr
          119 684 rmoveto
          66 -38 -66 vlineto
          -134 vmoveto
          -550 37 550 vlineto
          endchar
        </CharString>
        <CharString name="f">
          -248 21 -21 463 37 214 37 hstem
          79 37 vstem
          212 -25 callsubr
          -463 37 463 96 vlineto
          endchar
        </CharString>
        <CharString name="five">
          -6 1 40 380 37 205 37 hstem
          67 34 294 39 vstem
          67 339 rmoveto
          47 27 55 35 62 hhcurveto
          128 56 -90 -92 -97 -63 -101 -106 -83 -55 47 48 -5 hvcurveto
          -37 hlineto
          -80 4 85 -55 86 hhcurveto
          132 81 125 119 109 -67 104 -155 -45 -37 -15 -21 -29 hvcurveto
          241 294 37 -328 vlineto
          endchar
        </CharString>
        <CharString name="florin">
          -247 -129 37 555 37 214 37 hstem
          80 37 vstem
          213 -25 callsubr
          -388 vlineto
          -92 -35 -75 -90 -6 -15 0 1 -6 vhcurveto
          -37 vlineto
          -1 8 16 0 9 hhcurveto
          50 106 35 168 hvcurveto
          389 96 vlineto
          endchar
        </CharString>
        <CharString name="four">
          -29 21 -21 160 37 503 -20 hstem
          312 37 vstem
          349 hmoveto
          160 72 37 -72 503 vlineto
          -330 -503 rlineto
          -37 293 -160 vlineto
          575 vmoveto
          -378 -251 vlineto
          endchar
        </CharString>
        <CharString name="g">
          -263 37 226 42 callsubr
          -14 callsubr
          hintmask 11101100
          -81 callsubr
          0 callsubr
          hvcurveto
          -16 vlineto
          -109 -34 -101 -96 -63 callsubr
          hintmask 11011100
          517 vlineto
          -312 -236 rmoveto
          hintmask 11101100
          -42 callsubr
        </CharString>
        <CharString name="germandbls">
          -8 -30 -21 52 37 675 38 hstemhm
          70 37 85 240 -128 40 47 41 hintmask 11110110
          246 428 rmoveto
          63 48 35 72 67 vvcurveto
          92 -71 44 -53 -95 -55 -49 -220 vhcurveto
          -533 37 532 vlineto
          163 32 69 78 47 40 -46 -51 vhcurveto
          hintmask 11111000
          -88 -66 -85 -46 -7 vhcurveto
          -44 vlineto
          8 -1 1 7 hhcurveto
          hintmask 11110110
          122 63 -91 -86 -95 -73 -83 -121 hvcurveto
          -37 vlineto
          121 114 71 145 100 -66 94 -120 17 hvcurveto
          endchar
        </CharString>
        <CharString name="grave">
          357 -27 callsubr
          426 564 -73 callsubr
        </CharString>
        <CharString name="greater">
          85 callsubr
          469 300 rmoveto
          -340 155 rlineto
          -75 hlineto
          346 -155 -348 -154 rlineto
          75 hlineto
          endchar
        </CharString>
        <CharString name="guillemotleft">
          -32 -6 callsubr
          348 -252 rmoveto
          -22 callsubr
          endchar
        </CharString>
        <CharString name="guillemotright">
          -32 -12 callsubr
          hstem
          417 -35 callsubr
          -12 -35 callsubr
          endchar
        </CharString>
        <CharString name="guilsinglleft">
          -212 -6 callsubr
          endchar
        </CharString>
        <CharString name="guilsinglright">
          -212 -12 callsubr
          hstem
          237 -35 callsubr
          endchar
        </CharString>
        <CharString name="h">
          6 21 -21 474 20 callsubr
          23 callsubr
          43 56 hhcurveto
          81 59 -101 -54 callsubr
          50 -54 -58 -46 -31 -40 -37 vhcurveto
          310 -37 -750 vlineto
          endchar
        </CharString>
        <CharString name="hyphen">
          -142 257 37 hstem
          287 257 rmoveto
          37 -240 64 callsubr
        </CharString>
        <CharString name="i">
          15 callsubr
          185 -24 callsubr
          2 665 rmoveto
          -86 37 86 vlineto
          endchar
        </CharString>
        <CharString name="iacute">
          15 callsubr
          220 -24 callsubr
          146 685 -80 callsubr
        </CharString>
        <CharString name="icircumflex">
          15 callsubr
          212 -24 callsubr
          94 556 -89 callsubr
        </CharString>
        <CharString name="idieresis">
          15 callsubr
          84 66 hstem
          -16 38 48 37 47 38 -9 callsubr
          -86 630 -86 callsubr
        </CharString>
        <CharString name="igrave">
          15 callsubr
          220 -24 callsubr
          9 564 -73 callsubr
        </CharString>
        <CharString name="j">
          -299 -259 37 722 -20 186 31 callsubr
          vstem
          71 666 rmoveto
          -87 37 87 vlineto
          -38 -678 rmoveto
          -66 callsubr
          64 callsubr
        </CharString>
        <CharString name="k">
          21 -21 270 37 194 -20 269 31 callsubr
          285 37 vstem
          429 hmoveto
          80 vlineto
          174 -109 53 -52 -10 -9 -1 -2 -8 vhcurveto
          188 197 79 callsubr
          -271 -282 rlineto
          531 -37 -750 37 165 vlineto
          58 61 rlineto
          25 28 32 19 37 hhcurveto
          79 51 -96 -106 hvcurveto
          -68 vlineto
          endchar
        </CharString>
        <CharString name="l">
          -291 21 -21 749 -20 hstem
          74 37 vstem
          111 hmoveto
          749 -37 -749 vlineto
          endchar
        </CharString>
        <CharString name="less">
          85 callsubr
          371 146 rmoveto
          75 hlineto
          -348 154 346 155 rlineto
          -75 hlineto
          -340 -155 rlineto
          endchar
        </CharString>
        <CharString name="logicalnot">
          166 224 -21 161 37 hstem
          540 37 vstem
          58 401 rmoveto
          -37 482 -161 37 198 vlineto
          endchar
        </CharString>
        <CharString name="m">
          298 21 46 callsubr
          hstemhm
          70 37 265 37 265 37 cntrmask 00011100
          hintmask 11011100
          23 callsubr
          42 56 hhcurveto
          75 55 -100 -57 callsubr
          48 -7 39 -11 32 vhcurveto
          40 29 57 49 57 -49 callsubr
          -73 -57 -49 -42 -33 vhcurveto
          70 -37 -59 21 -33 hhcurveto
          -58 -46 -30 -40 -37 hvcurveto
          hintmask 10111100
          60 30 callsubr
          endchar
        </CharString>
        <CharString name="mu">
          -69 -170 -21 187 36 -11 -19 callsubr
          hstemhm
          67 37 211 37 hintmask 11011100
          104 -191 rmoveto
          205 vlineto
          -13 19 23 -5 22 hhcurveto
          59 69 59 23 19 hvcurveto
          hintmask 10111100
          -78 37 500 -37 -372 vlineto
          hintmask 11011100
          -46 -30 -69 -50 -48 hhcurveto
          -34 -30 22 38 hvcurveto
          408 -37 -691 vlineto
          endchar
        </CharString>
        <CharString name="multiply">
          -7 161 -21 361 -20 hstem
          209 320 rmoveto
          -163 -180 rlineto
          51 hlineto
          137 152 138 -152 rlineto
          51 hlineto
          -163 180 163 181 79 callsubr
          -138 -153 -137 153 79 callsubr
          endchar
        </CharString>
        <CharString name="n">
          6 21 46 callsubr
          hstemhm
          70 17 callsubr
          hintmask 11011000
          -38 callsubr
          hintmask 10111000
          60 30 callsubr
          endchar
        </CharString>
        <CharString name="nine">
          20 1 37 255 37 330 40 hstem
          38 37 323 37 vstem
          436 499 rmoveto
          131 -92 70 -103 -52 -151 -36 -165 -117 86 -89 113 69 59 33 51 33 vhcurveto
          -129 vlineto
          -131 -79 -79 -81 -48 -76 25 31 -44 vhcurveto
          -2 -37 rlineto
          -43 59 67 -13 50 hhcurveto
          54 137 50 196 hvcurveto
          238 1 7 7 vvcurveto
          -200 161 29 callsubr
          endchar
        </CharString>
        <CharString name="ntilde">
          6 21 46 callsubr
          77 78 callsubr
          hstemhm
          70 17 callsubr
          hintmask 11011110
          -38 callsubr
          hintmask 10111110
          60 30 callsubr
          305 626 -107 callsubr
        </CharString>
        <CharString name="numbersign">
          167 0 238 -37 37 213 37 -37 249 hstemhm
          hintmask 01100000
          172 201 rmoveto
          174 hlineto
          65 callsubr
          88 201 rlineto
          127 37 -111 hlineto
          93 213 rlineto
          112 37 -96 40 callsubr
          -175 40 callsubr
          -128 -37 111 hlineto
          -93 -213 rlineto
          -112 hlineto
          hintmask 01100000
          -37 96 vlineto
          65 callsubr
          197 451 rmoveto
          174 hlineto
          -93 -213 rlineto
          -174 hlineto
          endchar
        </CharString>
        <CharString name="o">
          2 callsubr
          -104 callsubr
          endchar
        </CharString>
        <CharString name="oacute">
          -74 callsubr
          120 651 -80 callsubr
        </CharString>
        <CharString name="ocircumflex">
          2 callsubr
          182 -20 -104 callsubr
          82 522 -89 callsubr
        </CharString>
        <CharString name="odieresis">
          2 callsubr
          54 66 hstem
          41 37 53 24 callsubr
          34 -106 callsubr
          -95 596 -86 callsubr
        </CharString>
        <CharString name="oe">
          156 -2 38 228 37 172 37 hstem
          41 37 161 37 277 37 vstem
          592 -82 callsubr
          -22 -32 -9 -22 -31 vhcurveto
          19 -26 -33 12 -40 -76 callsubr
          33 47 9 40 38 hvcurveto
          67 -40 90 -7 91 -1 rrcurveto
          -370 474 rmoveto
          30 25 -8 -12 20 hvcurveto
          -33 -38 -25 -59 -91 vvcurveto
          -96 29 -61 46 -40 vhcurveto
          -19 -19 -29 -14 -48 hhcurveto
          -99 -41 98 112 109 3 callsubr
          hvcurveto
          331 -172 34 callsubr
        </CharString>
        <CharString name="ograve">
          -74 callsubr
          -17 530 -73 callsubr
        </CharString>
        <CharString name="one">
          -193 48 callsubr
          hstem
          169 38 vstem
          207 hmoveto
          700 vlineto
          -188 -87 rlineto
          -37 vlineto
          150 68 rlineto
          -644 vlineto
          endchar
        </CharString>
        <CharString name="onehalf">
          272 -1 37 -15 -21 367 37 296 -20 hstemhm
          163 37 464 36 hintmask 01111100
          687 13 callsubr
          127 -23 callsubr
          hintmask 10111100
          289 -300 -45 callsubr
        </CharString>
        <CharString name="onequarter">
          240 21 -21 96 37 567 -20 hstem
          165 37 350 37 vstem
          589 -18 callsubr
          127 -23 callsubr
          387 1 88 callsubr
        </CharString>
        <CharString name="onesuperior">
          -254 320 -21 401 -20 hstem
          125 37 vstem
          162 -23 callsubr
          endchar
        </CharString>
        <CharString name="ordfeminine">
          -163 401 38 223 37 -7 -20 hstemhm
          38 37 145 37 hintmask 10111000
          220 692 rmoveto
          -26 vlineto
          hintmask 11011000
          24 -22 -37 9 -21 hhcurveto
          -32 -70 -30 -118 -126 113 -23 106 -1 hvcurveto
          hintmask 10111000
          291 vlineto
          -182 -142 rmoveto
          hintmask 11011000
          82 37 30 32 24 30 -11 -25 22 vhcurveto
          -187 vlineto
          -49 -96 15 96 hvcurveto
          endchar
        </CharString>
        <CharString name="ordmasculine">
          -55 callsubr
        </CharString>
        <CharString name="oslash">
          -10 19 -21 23 46 callsubr
          hstemhm
          49 37 295 37 hintmask 01011100
          418 95 callsubr
          -1 51 -10 52 -22 43 69 85 rcurveline
          -37 hlineto
          -48 -59 rlineto
          hintmask 01101100
          41 -29 -44 28 -62 -46 callsubr
          -69 13 -49 19 -36 hvcurveto
          -69 -85 rlineto
          37 hlineto
          49 60 rlineto
          hintmask 10101100
          -51 40 58 -11 38 hhcurveto
          65 119 33 238 hvcurveto
          -188 204 rmoveto
          55 37 -25 -36 23 hvcurveto
          -237 -293 rlineto
          -15 34 -7 41 43 vvcurveto
          8 vlineto
          109 3 callsubr
          vhcurveto
          -8 -438 rmoveto
          -44 3 -33 22 -22 32 237 292 rcurveline
          15 -36 6 -42 -42 vvcurveto
          -130 -40 -90 -96 -9 vhcurveto
          -11 -1 rlineto
          endchar
        </CharString>
        <CharString name="otilde">
          2 callsubr
          47 78 callsubr
          -104 callsubr
          132 592 -107 callsubr
        </CharString>
        <CharString name="p">
          -229 -21 250 37 63 callsubr
          hstemhm
          70 17 callsubr
          hintmask 11101100
          107 -250 rmoveto
          250 vlineto
          163 5 149 41 219 vvcurveto
          196 -117 50 -54 -58 -46 -31 -40 -37 vhcurveto
          hintmask 11011100
          60 -37 -750 vlineto
          312 514 rmoveto
          -180 -122 -47 -153 vhcurveto
          353 vlineto
          hintmask 11101100
          41 36 43 43 56 hhcurveto
          81 59 -101 -109 hvcurveto
          endchar
        </CharString>
        <CharString name="paragraph">
          42 21 -21 663 37 hstemhm
          35 238 -37 37 105 37 hintmask 11101000
          415 hmoveto
          663 71 37 -213 vlineto
          -166 -72 -75 -125 hvcurveto
          hintmask 11011000
          -187 135 -16 66 -7 vhcurveto
          -290 37 663 105 -663 vlineto
          endchar
        </CharString>
        <CharString name="parenleft">
          82 callsubr
          38 38 vstem
          297 -97 rmoveto
          -131 113 -90 140 152 vvcurveto
          164 81 121 135 97 vhcurveto
          37 vlineto
          -165 -106 -89 -135 -177 vvcurveto
          -168 93 -132 120 -106 vhcurveto
          endchar
        </CharString>
        <CharString name="parenright">
          82 callsubr
          233 38 vstem
          58 -97 rmoveto
          120 106 93 132 168 vvcurveto
          177 -89 135 -165 106 vhcurveto
          -37 vlineto
          135 -97 81 -121 -164 vvcurveto
          -152 -90 -140 -131 -113 vhcurveto
          endchar
        </CharString>
        <CharString name="percent">
          168 9 callsubr
          hintmask 0110111110000000
          6 callsubr
          hintmask 1011011110000000
          -56 callsubr
          vhcurveto
          -83 callsubr
          311 -461 -93 callsubr
          endchar
        </CharString>
        <CharString name="period">
          -295 0 95 hstem
          52 77 vstem
          129 hmoveto
          53 callsubr
          endchar
        </CharString>
        <CharString name="periodcentered">
          -322 291 -21 66 -20 hstem
          58 38 vstem
          58 336 rmoveto
          -26 callsubr
        </CharString>
        <CharString name="perthousand">
          478 9 callsubr
          43 18 callsubr
          hintmask 0110111111100000
          6 callsubr
          hintmask 1011011111100000
          -56 callsubr
          vhcurveto
          -83 callsubr
          311 -461 -93 callsubr
          312 -231 -93 callsubr
          endchar
        </CharString>
        <CharString name="plus">
          -49 180 -21 164 37 157 -20 hstem
          196 37 vstem
          393 11 callsubr
          endchar
        </CharString>
        <CharString name="plusminus">
          -10 0 37 286 37 157 -20 hstem
          215 37 vstem
          412 11 callsubr
          160 -323 rmoveto
          37 -358 64 callsubr
        </CharString>
        <CharString name="q">
          -229 -21 250 42 callsubr
          390 -250 rmoveto
          750 -37 -60 vlineto
          hintmask 11101100
          -81 callsubr
          0 callsubr
          hvcurveto
          -250 vlineto
          -275 514 rmoveto
          -42 callsubr
        </CharString>
        <CharString name="question">
          -24 21 -21 660 40 hstem
          187 37 151 37 vstem
          224 170 rmoveto
          96 vlineto
          97 16 91 69 144 vvcurveto
          204 -185 1 -21 -86 -85 -55 -80 -4 vhcurveto
          37 hlineto
          48 5 55 47 83 hhcurveto
          102 62 -76 -89 -121 -96 -68 -92 -6 hvcurveto
          -130 vlineto
          -3 -104 rmoveto
          -26 callsubr
        </CharString>
        <CharString name="questiondown">
          -24 0 40 660 -20 hstem
          40 37 151 37 vstem
          228 530 rmoveto
          -96 vlineto
          -97 -16 -91 -69 -144 vvcurveto
          -204 185 -1 21 86 85 55 80 4 vhcurveto
          -37 hlineto
          -48 -5 -55 -47 -83 hhcurveto
          -102 -62 76 89 121 96 68 92 6 hvcurveto
          130 vlineto
          3 104 rmoveto
          66 -38 -66 vlineto
          endchar
        </CharString>
        <CharString name="quotedbl">
          -37 callsubr
        </CharString>
        <CharString name="quotedblbase">
          -144 28 callsubr
          287 135 rmoveto
          -50 hlineto
          -106 -135 rlineto
          29 hlineto
          endchar
        </CharString>
        <CharString name="quotedblleft">
          -195 -27 callsubr
          49 33 117 33 vstem
          47 564 37 callsubr
          145 -136 37 callsubr
          endchar
        </CharString>
        <CharString name="quotedblright">
          -37 callsubr
        </CharString>
        <CharString name="quoteleft">
          -345 -27 callsubr
          49 33 vstem
          47 564 37 callsubr
          endchar
        </CharString>
        <CharString name="quoteright">
          -2 callsubr
        </CharString>
        <CharString name="quotesinglbase">
          -304 28 callsubr
          endchar
        </CharString>
        <CharString name="quotesingle">
          -2 callsubr
        </CharString>
        <CharString name="r">
          -107 21 -21 473 36 -9 -20 hstemhm
          70 37 210 37 hintmask 11011000
          107 hmoveto
          377 vlineto
          46 30 69 50 48 hhcurveto
          34 29 -22 -38 hvcurveto
          37 hlineto
          74 -1 -54 22 -45 hhcurveto
          -59 -69 -59 -23 -19 hvcurveto
          hintmask 10111000
          73 30 callsubr
          endchar
        </CharString>
        <CharString name="registered">
          44 263 37 -37 239 104 35 27 37 hstemhm
          39 37 120 38 78 35 97 37 hintmask 10111111
          260 263 rmoveto
          121 100 98 125 123 -98 96 -123 -120 -101 -96 -123 -125 101 -98 120 hvcurveto
          -2 405 rmoveto
          111 75 -72 -110 -99 -66 -87 -116 -115 -71 90 96 110 79 72 103 hvcurveto
          101 -328 rmoveto
          -76 133 rlineto
          36 8 28 20 59 vvcurveto
          57 -45 23 -106 1 vhcurveto
          -301 38 127 11 vlineto
          73 -127 rlineto
          -6 219 rmoveto
          hintmask 01111111
          -40 -28 -17 -50 vhcurveto
          104 vlineto
          67 -2 11 -28 -17 vvcurveto
          endchar
        </CharString>
        <CharString name="s">
          -63 -2 37 438 37 hstem
          32 36 274 37 vstem
          342 155 -59 callsubr
        </CharString>
        <CharString name="scaron">
          -63 -2 37 438 37 189 -20 hstem
          32 36 274 37 vstem
          116 699 -36 callsubr
          149 -462 -59 callsubr
        </CharString>
        <CharString name="section">
          -32 -202 37 828 37 hstem
          45 36 279 37 vstem
          397 -3 rmoveto
          57 -18 39 -27 27 vhcurveto
          27 24 18 23 50 243 -316 -100 158 vvcurveto
          97 74 48 75 56 69 -8 -5 28 vhcurveto
          36 38 callsubr
          -71 -120 -50 21 -30 32 -21 hvcurveto
          -32 -28 -21 -31 -60 -192 315 99 -201 vvcurveto
          -116 -17 callsubr
          -266 393 rmoveto
          93 -41 136 -2 -132 vvcurveto
          -34 -13 -15 -27 -21 vhcurveto
          -94 57 -145 -11 107 vvcurveto
          51 20 17 30 24 vhcurveto
          endchar
        </CharString>
        <CharString name="semicolon">
          -254 -90 -21 527 95 hstem
          83 77 vstem
          160 416 92 callsubr
          77 -318 61 callsubr
        </CharString>
        <CharString name="seven">
          -99 24 -21 660 37 hstem
          17 663 rmoveto
          300 hlineto
          -231 -660 rlineto
          37 hlineto
          244 697 rlineto
          -350 hlineto
          endchar
        </CharString>
        <CharString name="six">
          20 1 40 330 37 255 37 hstem
          61 37 323 37 vstem
          60 202 rmoveto
          -131 92 -70 103 52 151 36 165 117 -86 89 -113 -69 -59 -33 -51 -33 vhcurveto
          129 vlineto
          131 79 79 81 48 76 -25 -31 44 vhcurveto
          2 37 rlineto
          43 -59 -67 13 -50 hhcurveto
          -54 -137 -50 -196 hvcurveto
          -238 -1 -7 -7 vvcurveto
          200 -161 rmoveto
          -90 -73 70 91 81 64 88 97 95 68 -90 -79 -91 -76 -70 -85 hvcurveto
          endchar
        </CharString>
        <CharString name="slash">
          82 -101 -21 822 -20 hstem
          536 700 rmoveto
          -37 hlineto
          -477 -822 rlineto
          37 hlineto
          endchar
        </CharString>
        <CharString name="space">
          -273 endchar
        </CharString>
        <CharString name="sterling">
          -142 6 34 423 37 214 37 hstemhm
          101 37 -37 193 hintmask 11110000
          295 750 rmoveto
          -11 callsubr
          -275 vlineto
          -38 -6 -37 -11 -32 vhcurveto
          -21 -3 -22 -11 -7 -14 rrcurveto
          -91 callsubr
          hintmask 11101000
          26 21 13 19 13 hvcurveto
          37 vlineto
          -71 callsubr
          -17 9 -13 6 -11 3 rrcurveto
          hintmask 11110000
          8 29 5 36 42 vvcurveto
          276 96 37 -96 4 vlineto
          22 callsubr
          endchar
        </CharString>
        <CharString name="t">
          -190 21 -21 463 37 165 -20 hstem
          124 37 vstem
          124 463 rmoveto
          -463 37 463 116 37 -116 165 -37 -165 -115 64 callsubr
        </CharString>
        <CharString name="thorn">
          -170 -21 191 37 32 callsubr
          -941 37 191 vlineto
          163 5 149 40 222 -43 callsubr
        </CharString>
        <CharString name="three">
          -31 75 callsubr
          335 37 -11 37 hintmask 11101000
          27 99 rmoveto
          -61 34 63 -39 75 hhcurveto
          50 callsubr
          hintmask 11110000
          70 callsubr
          -67 -58 -36 -56 -28 vhcurveto
          46 hlineto
          33 25 39 22 41 hhcurveto
          87 callsubr
          -11 -11 1 3 -10 hvcurveto
          -46 vlineto
          2 9 9 0 9 hhcurveto
          hintmask 11101000
          45 callsubr
          -52 -44 27 37 -29 hvcurveto
          endchar
        </CharString>
        <CharString name="threequarters">
          275 21 -21 96 37 149 37 173 44 132 37 -5 -20 hstemhm
          212 37 -21 21 -21 37 322 37 hintmask 1111010011000000
          624 -18 callsubr
          -68 25 callsubr
          hintmask 1111101001000000
          -44 callsubr
          hintmask 1111100101000000
          43 callsubr
          501 -43 88 callsubr
        </CharString>
        <CharString name="threesuperior">
          -181 282 37 173 44 132 37 hstemhm
          202 37 -21 21 -21 37 hintmask 11100100
          32 25 callsubr
          hintmask 11110000
          -44 callsubr
          hintmask 11101000
          43 callsubr
          endchar
        </CharString>
        <CharString name="tilde">
          -85 557 78 callsubr
          hstem
          300 626 -107 callsubr
        </CharString>
        <CharString name="trademark">
          91 323 -21 350 -20 21 -20 hstemhm
          135 202 -18 179 hintmask 10101000
          479 302 rmoveto
          19 351 -28 hlineto
          -62 -187 -61 187 rlineto
          -28 -351 hlineto
          hintmask 11010000
          18 319 hlineto
          62 -184 rlineto
          19 hlineto
          62 184 rlineto
          -326 -319 rmoveto
          332 80 18 -179 -18 80 -332 vlineto
          endchar
        </CharString>
        <CharString name="two">
          -39 91 callsubr
          hstem
          353 36 vstem
          17 hmoveto
          380 37 -302 hlineto
          240 333 rlineto
          36 50 18 45 49 vvcurveto
          115 -75 71 -105 -58 -71 -43 -21 -29 vhcurveto
          -36 vlineto
          18 28 69 45 56 hhcurveto
          75 74 -48 -97 -54 -36 -49 -33 -45 hvcurveto
          endchar
        </CharString>
        <CharString name="twosuperior">
          -152 299 37 331 37 hstem
          240 36 vstem
          28 299 -45 callsubr
        </CharString>
        <CharString name="u">
          1 callsubr
          hstemhm
          62 37 275 37 hintmask 10111000
          -97 callsubr
          hintmask 01111000
          49 callsubr
          endchar
        </CharString>
        <CharString name="uacute">
          -61 callsubr
          -47 185 -80 callsubr
        </CharString>
        <CharString name="ucircumflex">
          1 callsubr
          212 -85 callsubr
          -94 56 -89 callsubr
        </CharString>
        <CharString name="udieresis">
          1 callsubr
          84 66 hstemhm
          62 37 36 24 callsubr
          31 37 hintmask 10111111
          -97 callsubr
          hintmask 01111111
          49 callsubr
          -276 130 -86 callsubr
        </CharString>
        <CharString name="ugrave">
          -61 callsubr
          -172 64 -73 callsubr
        </CharString>
        <CharString name="underscore">
          232 -100 37 hstem
          587 -100 rmoveto
          37 -466 64 callsubr
        </CharString>
        <CharString name="uni00AD">
          -39 259 37 hstem
          385 259 rmoveto
          37 -333 64 callsubr
        </CharString>
        <CharString name="v">
          -56 -12 callsubr
          hstem
          195 hmoveto
          37 hlineto
          177 90 callsubr
          -159 -440 -165 440 26 callsubr
          endchar
        </CharString>
        <CharString name="w">
          191 -12 callsubr
          hstem
          168 hmoveto
          37 hlineto
          129 438 135 -438 rlineto
          37 hlineto
          147 90 callsubr
          -129 -440 -135 440 26 callsubr
          -129 -440 -135 440 26 callsubr
          endchar
        </CharString>
        <CharString name="x">
          103 0 93 callsubr
          -10 -20 hstemhm
          271 37 hintmask 10110000
          272 206 rmoveto
          -163 14 96 -43 50 hhcurveto
          50 42 83 callsubr
          -39 -32 -48 hhcurveto
          -80 -49 98 107 -1 hvcurveto
          250 259 79 callsubr
          -200 -206 rlineto
          hintmask 11010000
          171 -11 -98 45 -51 hhcurveto
          -50 -42 81 callsubr
          39 32 48 hhcurveto
          81 49 -101 -109 hvcurveto
          -7 vlineto
          -250 -257 rlineto
          52 hlineto
          endchar
        </CharString>
        <CharString name="y">
          1 -259 37 226 37 459 -67 callsubr
          endchar
        </CharString>
        <CharString name="yacute">
          66 callsubr
          220 -67 callsubr
          -53 185 -80 callsubr
        </CharString>
        <CharString name="ydieresis">
          66 callsubr
          84 66 hstem
          58 37 35 24 callsubr
          32 -88 callsubr
          -277 130 -86 callsubr
        </CharString>
        <CharString name="yen">
          75 17 -21 119 37 46 37 -37 158 344 -20 hstemhm
          49 54 -37 37 155 37 150 37 hintmask 1110110110000000
          504 198 rmoveto
          37 -209 82 vlineto
          102 9 85 89 144 vvcurveto
          141 -37 -140 vlineto
          hintmask 1101110110000000
          -145 -95 -59 -76 -76 -95 59 145 vhcurveto
          140 vlineto
          hintmask 1110101110000000
          -37 -141 hlineto
          -148 91 -86 101 -9 vhcurveto
          -81 vlineto
          hintmask 1110110110000000
          62 callsubr
          -46 62 callsubr
          -119 37 119 89 callsubr
          46 hlineto
          endchar
        </CharString>
        <CharString name="z">
          -53 0 37 426 37 hstem
          19 hmoveto
          5 callsubr
        </CharString>
        <CharString name="zcaron">
          -53 0 37 426 37 199 -20 hstem
          121 699 -36 callsubr
          -179 -617 rmoveto
          5 callsubr
        </CharString>
        <CharString name="zero">
          75 2 38 611 39 hstem
          51 37 374 37 vstem
          499 73 callsubr
          155 -34 191 -183 -146 -85 -119 -227 -220 91 -122 137 80 callsubr
          124 218 vhcurveto
          -37 3 rmoveto
          -153 -42 -154 -140 -140 -52 154 153 207 75 97 122 109 68 -97 -207 vhcurveto
          endchar
        </CharString>
</ttFont>
